<svg xmlns="http://www.w3.org/2000/svg" viewBox="0 0 24 24" fill="#0ea5e9">
  <path d="M12 2.25a.75.75 0 0 1 .75.75v3.25a.75.75 0 0 1-1.5 0V3a.75.75 0 0 1 .75-.75zM12 17.75a.75.75 0 0 1 .75.75v3.25a.75.75 0 0 1-1.5 0V18.5a.75.75 0 0 1 .75-.75zM21.75 12a.75.75 0 0 1-.75.75h-3.25a.75.75 0 0 1 0-1.5h3.25a.75.75 0 0 1 .75.75zM6 12a.75.75 0 0 1-.75.75H2.25a.75.75 0 0 1 0-1.5H5.25a.75.75 0 0 1 .75.75z"/>
  <path fill-rule="evenodd" d="M12 6.01a5.99 5.99 0 1 0 0 11.98A5.99 5.99 0 0 0 12 6.01zm-3.75 5.99a3.75 3.75 0 1 1 7.5 0 3.75 3.75 0 0 1-7.5 0z" clip-rule="evenodd"/>
</svg>