<svg xmlns="http://www.w3.org/2000/svg" viewBox="0 0 24 24">
  <defs>
    <linearGradient id="gemini-grad-1" x1="0%" y1="0%" x2="100%" y2="100%">
      <stop offset="0%" stopColor="#89b3f8"/>
      <stop offset="100%" stopColor="#4285f4"/>
    </linearGradient>
    <linearGradient id="gemini-grad-2" x1="50%" y1="0%" x2="50%" y2="100%">
      <stop offset="0%" stopColor="#8ab4f8"/>
      <stop offset="100%" stopColor="#1a73e8"/>
    </linearGradient>
  </defs>
  <path fill="url(#gemini-grad-1)" d="M12 2.76l-1.36 4.4a1 1 0 01-1.29-.29l-2.1-2.1a1 1 0 00-1.4 1.4l2.1 2.1c.45.45.54 1.13.29 1.7L3.35 12l4.4 1.36c.57.17 1.08.68 1.25 1.25l1.36 4.4 1.36-4.4c.17-.57.68-1.08 1.25-1.25l4.4-1.36-4.4-1.36a1 1 0 01-.84-1.41l2.1-2.1a1 1 0 00-1.4-1.4l-2.1 2.1a1 1 0 01-1.29-.29L12 2.76z"/>
  <path fill="url(#gemini-grad-2)" d="M16.91 10.32L12.68 12l4.23 1.68c.95.38 1.25 1.5.65 2.1l-2.1 2.1c-.6.6-1.72.3-2.1-.65L12 12.83l-1.36 4.4c-.38.95-1.5 1.25-2.1.65l-2.1-2.1c-.6-.6-.3-1.72.65-2.1L11.32 12 7.09 10.32c-.95-.38-1.25-1.5-.65-2.1l2.1-2.1c.6-.6 1.72-.3 2.1.65L12 11.17l1.36-4.4c.38.95 1.5 1.25 2.1-.65l2.1 2.1c.6.6.3 1.72-.65 2.1z"/>
</svg>
